# xmcd CD database file
#
# Track frame offsets:
#	150
#	22342
#	40745
#	62587
#	84850
#	109837
#	127172
#	146595
#	168787
#	189625
#
# Disc length: 2781 seconds
#
# Revision: 0
# Processed by: cddbd v1.5PL3 Copyright (c) Steve Scherf et al.
# Submitted via: CDex 1.51
#
DISCID=860adb0a
DTITLE=girl meets love - Love Clock Works 001
DYEAR=1996
DGENRE=JPop
TTITLE0=Opal Rain
TTITLE1=Keep On Together
TTITLE2=Pearl
TTITLE3=Lucky 〜USEN mix version〜
TTITLE4=神様が僕にくれた翼 〜cathedral version〜
TTITLE5=Every Day Every Night
TTITLE6=Angel Fish
TTITLE7=Love Portion 〜orchestra version〜
TTITLE8=Over The Rainbow 〜clockwork mix〜
TTITLE9=Better Days
EXTD=YEAR: 1996
EXTT0=
EXTT1=
EXTT2=
EXTT3=
EXTT4=
EXTT5=
EXTT6=
EXTT7=
EXTT8=
EXTT9=
PLAYORDER=
